<?xml version="1.0" encoding="UTF-8"?>
<svg id="svg-keyboard" xmlns="http://www.w3.org/2000/svg" version="1.1" viewBox="0 0 1247.87 498.32">
  <!-- Generator: Adobe Illustrator 29.6.1, SVG Export Plug-In . SVG Version: 2.1.1 Build 9)  -->
  <defs>
    <style>
      .st0 {
        font-family: ArialMT, Arial;
        font-size: 36px;
      }

      .st0, .st1 {
        isolation: isolate;
      }
    </style>
  </defs>
  <g id="layer1">
    <g id="KeyQ" fill="#f7f7f7" fill-opacity=".77652" stroke-linejoin="round">
      <path id="rect1181" class="st2" d="M6.4,5.94h112.85c.15,0,.28.13.28.28v111.52c0,.15-.12.28-.28.28H6.39c-.15,0-.28-.12-.28-.28V6.22c0-.15.13-.28.28-.28,0,0,.01,0,.01,0Z"/>
      <rect id="rect1183" class="st2" x="2.15" y="2.22" width="121.45" height="121.45" rx="6.31" ry="6.31"/>
    </g>
    <g id="KeyA" fill="#f7f7f7" fill-opacity=".77652" stroke-linejoin="round">
      <path id="rect1187" class="st2" d="M38.01,130.66h112.86c.15,0,.28.12.28.28v111.52c0,.15-.13.28-.28.28H38.02c-.15,0-.28-.13-.28-.28v-111.52c0-.15.13-.28.28-.28h-.01Z"/>
      <rect id="rect1189" class="st2" x="33.76" y="126.95" width="121.45" height="121.45" rx="6.31" ry="6.31"/>
    </g>
    <g id="KeyZ" fill="#f7f7f7" fill-opacity=".77652" stroke-linejoin="round">
      <path id="rect1193" class="st2" d="M100.09,255.39h112.85c.15,0,.28.13.28.28v111.52c0,.15-.12.28-.28.28h-112.86c-.15,0-.28-.12-.28-.28v-111.52c0-.15.13-.28.28-.28h.01,0Z"/>
      <rect id="rect1195" class="st2" x="95.84" y="251.67" width="121.45" height="121.45" rx="6.31" ry="6.31"/>
    </g>
    <g id="KeyW" fill="#f7f7f7" fill-opacity=".77652" stroke-linejoin="round">
      <path id="rect1205" class="st2" d="M131.13,5.94h112.86c.15,0,.28.13.28.28v111.52c0,.15-.12.28-.28.28h-112.86c-.15,0-.28-.12-.28-.28V6.22c0-.15.12-.28.28-.28Z"/>
      <rect id="rect1207" class="st2" x="126.88" y="2.22" width="121.45" height="121.45" rx="6.31" ry="6.31"/>
    </g>
    <g id="KeyS" fill="#f7f7f7" fill-opacity=".77652" stroke-linejoin="round">
      <path id="rect1211" class="st2" d="M162.73,130.66h112.86c.15,0,.28.12.28.28v111.52c0,.15-.13.28-.28.28h-112.85c-.15,0-.28-.13-.28-.28v-111.52c0-.15.13-.28.28-.28h0Z"/>
      <rect id="rect1213" class="st2" x="158.48" y="126.95" width="121.45" height="121.45" rx="6.31" ry="6.31"/>
    </g>
    <g id="KeyX" fill="#f7f7f7" fill-opacity=".77652" stroke-linejoin="round">
      <path id="rect1217" class="st2" d="M224.81,255.39h112.85c.15,0,.28.13.28.28v111.52c0,.15-.12.28-.28.28h-112.86c-.15,0-.28-.12-.28-.28v-111.52c0-.15.13-.28.28-.28h0Z"/>
      <rect id="rect1219" class="st2" x="220.56" y="251.67" width="121.45" height="121.45" rx="6.31" ry="6.31"/>
    </g>
    <g id="KeyE" fill="#f7f7f7" fill-opacity=".77652" stroke-linejoin="round">
      <path id="rect1229" class="st2" d="M255.85,5.94h112.85c.15,0,.28.13.28.28v111.52c0,.15-.12.28-.28.28h-112.86c-.15,0-.28-.12-.28-.28V6.22c0-.15.13-.28.28-.28,0,0,0,0,0,0Z"/>
      <rect id="rect1231" class="st2" x="251.6" y="2.22" width="121.45" height="121.45" rx="6.31" ry="6.31"/>
    </g>
    <g id="KeyD" fill="#f7f7f7" fill-opacity=".77652" stroke-linejoin="round">
      <path id="rect1235" class="st2" d="M287.46,130.66h112.86c.15,0,.28.12.28.28v111.52c0,.15-.12.28-.28.28h-112.86c-.15,0-.28-.12-.28-.28v-111.52c0-.15.13-.28.28-.28h0Z"/>
      <rect id="rect1237" class="st2" x="283.21" y="126.95" width="121.45" height="121.45" rx="6.31" ry="6.31"/>
    </g>
    <g id="KeyC" fill="#f7f7f7" fill-opacity=".77652" stroke-linejoin="round">
      <path id="rect1241" class="st2" d="M349.54,255.39h112.85c.15,0,.28.13.28.28v111.52c0,.15-.12.28-.28.28h-112.86c-.15,0-.28-.12-.28-.28v-111.52c0-.15.13-.28.28-.28h.01,0Z"/>
      <rect id="rect1243" class="st2" x="345.29" y="251.67" width="121.45" height="121.45" rx="6.31" ry="6.31"/>
    </g>
    <g id="KeyR" fill="#f7f7f7" fill-opacity=".77652" stroke-linejoin="round">
      <path id="rect1253" class="st2" d="M380.58,5.94h112.85c.15,0,.28.13.28.28v111.52c0,.15-.12.28-.28.28h-112.86c-.15,0-.28-.12-.28-.28V6.22c0-.15.13-.28.28-.28h.01,0Z"/>
      <rect id="rect1255" class="st2" x="376.32" y="2.22" width="121.45" height="121.45" rx="6.31" ry="6.31"/>
    </g>
    <g id="KeyF" fill="#f7f7f7" fill-opacity=".77652" stroke-linejoin="round">
      <path id="rect1259" class="st2" d="M412.18,130.66h112.86c.15,0,.28.12.28.28v111.52c0,.15-.13.28-.28.28h-112.86c-.15,0-.28-.12-.28-.28v-111.52c0-.15.13-.28.28-.28Z"/>
      <rect id="rect1261" class="st2" x="407.93" y="126.95" width="121.45" height="121.45" rx="6.31" ry="6.31"/>
    </g>
    <g id="KeyV" fill="#f7f7f7" fill-opacity=".77652" stroke-linejoin="round">
      <path id="rect1265" class="st2" d="M474.26,255.39h112.85c.15,0,.28.13.28.28v111.52c0,.15-.12.28-.28.28h-112.86c-.15,0-.28-.12-.28-.28v-111.52c0-.15.13-.28.28-.28h.01Z"/>
      <rect id="rect1267" class="st2" x="470.01" y="251.67" width="121.45" height="121.45" rx="6.31" ry="6.31"/>
    </g>
    <g id="KeyT" fill="#f7f7f7" fill-opacity=".77652" stroke-linejoin="round">
      <path id="rect1277" class="st2" d="M505.3,5.94h112.86c.15,0,.28.13.28.28v111.52c0,.15-.12.28-.28.28h-112.86c-.15,0-.28-.13-.28-.28V6.22c0-.15.12-.28.28-.28Z"/>
      <rect id="rect1279" class="st2" x="501.05" y="2.22" width="121.45" height="121.45" rx="6.31" ry="6.31"/>
    </g>
    <g id="KeyG" fill="#f7f7f7" fill-opacity=".77652" stroke-linejoin="round">
      <path id="rect1283" class="st2" d="M536.91,130.66h112.86c.15,0,.28.12.28.28v111.52c0,.15-.13.28-.28.28h-112.86c-.15,0-.28-.12-.28-.28v-111.52c0-.15.13-.28.28-.28Z"/>
      <rect id="rect1285" class="st2" x="532.66" y="126.95" width="121.45" height="121.45" rx="6.31" ry="6.31"/>
    </g>
    <g id="KeyB" fill="#f7f7f7" fill-opacity=".77652" stroke-linejoin="round">
      <path id="rect1289" class="st2" d="M598.99,255.39h112.85c.15,0,.28.13.28.28v111.52c0,.15-.12.28-.28.28h-112.86c-.15,0-.28-.13-.28-.28v-111.52c0-.15.13-.28.28-.28h.01Z"/>
      <rect id="rect1291" class="st2" x="594.73" y="251.67" width="121.45" height="121.45" rx="6.31" ry="6.31"/>
    </g>
    <g id="KeyY" fill="#f7f7f7" fill-opacity=".77652" stroke-linejoin="round">
      <path id="rect1301" class="st2" d="M630.02,5.94h112.85c.15,0,.28.13.28.28v111.52c0,.15-.12.28-.28.28h-112.86c-.15,0-.28-.12-.28-.28V6.22c0-.15.13-.28.28-.28,0,0,.01,0,.01,0Z"/>
      <rect id="rect1303" class="st2" x="625.77" y="2.22" width="121.45" height="121.45" rx="6.31" ry="6.31"/>
    </g>
    <g id="KeyH" fill="#f7f7f7" fill-opacity=".77652" stroke-linejoin="round">
      <path id="rect1307" class="st2" d="M661.63,130.66h112.85c.15,0,.28.13.28.28v111.52c0,.15-.12.28-.28.28h-112.86c-.15,0-.28-.12-.28-.28v-111.52c0-.15.13-.28.28-.28h.01Z"/>
      <rect id="rect1309" class="st2" x="657.38" y="126.95" width="121.45" height="121.45" rx="6.31" ry="6.31"/>
    </g>
    <g id="KeyN" fill="#f7f7f7" fill-opacity=".77652" stroke-linejoin="round">
      <path id="rect1313" class="st2" d="M723.71,255.39h112.85c.15,0,.28.13.28.28v111.52c0,.15-.12.28-.28.28h-112.86c-.15,0-.28-.12-.28-.28v-111.52c0-.15.13-.28.28-.28h.01Z"/>
      <rect id="rect1315" class="st2" x="719.46" y="251.67" width="121.45" height="121.45" rx="6.31" ry="6.31"/>
    </g>
    <g id="KeyU" fill="#f7f7f7" fill-opacity=".77652" stroke-linejoin="round">
      <path id="rect1325" class="st2" d="M754.75,5.94h112.86c.15,0,.28.13.28.28v111.52c0,.15-.12.28-.28.28h-112.86c-.15,0-.28-.12-.28-.28V6.22c0-.15.12-.28.28-.28Z"/>
      <rect id="rect1327" class="st2" x="750.5" y="2.22" width="121.45" height="121.45" rx="6.31" ry="6.31"/>
    </g>
    <g id="KeyJ" fill="#f7f7f7" fill-opacity=".77652" stroke-linejoin="round">
      <path id="rect1331" class="st2" d="M786.36,130.66h112.86c.15,0,.28.12.28.28v111.52c0,.15-.13.28-.28.28h-112.86c-.15,0-.28-.12-.28-.28v-111.52c0-.15.13-.28.28-.28Z"/>
      <rect id="rect1333" class="st2" x="782.1" y="126.95" width="121.45" height="121.45" rx="6.31" ry="6.31"/>
    </g>
    <g id="KeyM" fill="#f7f7f7" fill-opacity=".77652" stroke-linejoin="round">
      <path id="rect1337" class="st2" d="M848.43,255.39h112.86c.15,0,.28.13.28.28v111.52c0,.15-.12.28-.28.28h-112.86c-.15,0-.28-.12-.28-.28v-111.52c0-.15.12-.28.28-.28h0Z"/>
      <rect id="rect1339" class="st2" x="844.18" y="251.67" width="121.45" height="121.45" rx="6.31" ry="6.31"/>
    </g>
    <g id="KeyI" fill="#f7f7f7" fill-opacity=".77652" stroke-linejoin="round">
      <path id="rect1349" class="st2" d="M879.47,5.94h112.85c.15,0,.28.13.28.28v111.52c0,.15-.12.28-.28.28h-112.86c-.15,0-.28-.12-.28-.28V6.22c0-.15.13-.28.28-.28,0,0,.01,0,.01,0Z"/>
      <rect id="rect1351" class="st2" x="875.22" y="2.22" width="121.45" height="121.45" rx="6.31" ry="6.31"/>
    </g>
    <g id="KeyK" fill="#f7f7f7" fill-opacity=".77652" stroke-linejoin="round">
      <path id="rect1355" class="st2" d="M911.08,130.66h112.86c.15,0,.28.12.28.28v111.52c0,.15-.13.28-.28.28h-112.86c-.15,0-.28-.12-.28-.28v-111.52c0-.15.13-.28.28-.28h0Z"/>
      <rect id="rect1357" class="st2" x="906.83" y="126.95" width="121.45" height="121.45" rx="6.31" ry="6.31"/>
    </g>
    <g id="KeyO" fill="#f7f7f7" fill-opacity=".77652" stroke-linejoin="round">
      <path id="rect1373" class="st2" d="M1004.2,5.94h112.85c.15,0,.28.13.28.28v111.52c0,.15-.12.28-.28.28h-112.86c-.15,0-.28-.12-.28-.28V6.22c0-.15.13-.28.28-.28h.01,0Z"/>
      <rect id="rect1375" class="st2" x="999.95" y="2.22" width="121.45" height="121.45" rx="6.31" ry="6.31"/>
    </g>
    <g id="KeyL" fill="#f7f7f7" fill-opacity=".77652" stroke-linejoin="round">
      <path id="rect1379" class="st2" d="M1035.8,130.66h112.86c.15,0,.28.12.28.28v111.52c0,.15-.12.28-.28.28h-112.86c-.15,0-.28-.12-.28-.28v-111.52c0-.15.13-.28.28-.28Z"/>
      <rect id="rect1381" class="st2" x="1031.55" y="126.95" width="121.45" height="121.45" rx="6.31" ry="6.31"/>
    </g>
    <g id="KeyP" fill="#f7f7f7" fill-opacity=".77652" stroke-linejoin="round">
      <path id="rect1397" class="st2" d="M1128.92,5.94h112.85c.15,0,.28.13.28.28v111.52c0,.15-.12.28-.28.28h-112.86c-.15,0-.28-.12-.28-.28V6.22c0-.15.13-.28.28-.28,0,0,.01,0,.01,0Z"/>
      <rect id="rect1399" class="st2" x="1124.67" y="2.22" width="121.45" height="121.45" rx="6.31" ry="6.31"/>
    </g>
    <g id="Space" fill="#f7f7f7" fill-opacity=".77652" stroke-linejoin="round">
      <path id="rect833-1-5" class="st2" d="M287.9,380.19h674.51c.92,0,1.66.94,1.66,2.1v107.15c0,1.16-.74,2.1-1.66,2.1H287.9c-.92,0-1.66-.94-1.66-2.1v-107.15c0-1.16.74-2.1,1.66-2.1h0Z"/>
      <path id="rect833-5" class="st2" d="M289.63,376.7h671.14c3.74,0,6.78,3.84,6.78,8.58v103.55c0,4.74-3.04,8.58-6.78,8.58H289.63c-3.74,0-6.78-3.84-6.78-8.58v-103.55c0-4.74,3.04-8.58,6.78-8.58h0Z"/>
    </g>
    <g id="text961">
      <g class="st1">
        <text class="st0" transform="translate(22.61 50.1)"><tspan x="0" y="0">Q</tspan></text>
      </g>
    </g>
    <g id="text961-0">
      <g class="st1">
        <text class="st0" transform="translate(148.57 49.62)"><tspan x="0" y="0">W</tspan></text>
      </g>
    </g>
    <g id="text961-0-6">
      <g class="st1">
        <text class="st0" transform="translate(270.81 49.62)"><tspan x="0" y="0">E</tspan></text>
      </g>
    </g>
    <g id="text1025">
      <g class="st1">
        <text class="st0" transform="translate(396.04 49.62)"><tspan x="0" y="0">R</tspan></text>
      </g>
    </g>
    <g id="text1041">
      <g class="st1">
        <text class="st0" transform="translate(522.74 49.62)"><tspan x="0" y="0">T</tspan></text>
      </g>
    </g>
    <g id="text1045">
      <g class="st1">
        <text class="st0" transform="translate(647.99 49.62)"><tspan x="0" y="0">Y</tspan></text>
      </g>
    </g>
    <g id="text1049">
      <g class="st1">
        <text class="st0" transform="translate(769.87 49.62)"><tspan x="0" y="0">U</tspan></text>
      </g>
    </g>
    <g id="text1053">
      <g class="st1">
        <text class="st0" transform="translate(895.64 49.62)"><tspan x="0" y="0">I</tspan></text>
      </g>
    </g>
    <g id="text1057">
      <g class="st1">
        <text class="st0" transform="translate(1020.4 50.1)"><tspan x="0" y="0">O</tspan></text>
      </g>
    </g>
    <g id="text1061">
      <g class="st1">
        <text class="st0" transform="translate(1143.89 49.62)"><tspan x="0" y="0">P</tspan></text>
      </g>
    </g>
    <g id="text961-8">
      <g class="st1">
        <text class="st0" transform="translate(54.16 175.11)"><tspan x="0" y="0">A</tspan></text>
      </g>
    </g>
    <g id="text961-0-3">
      <g class="st1">
        <text class="st0" transform="translate(180.13 174.63)"><tspan x="0" y="0">S</tspan></text>
      </g>
    </g>
    <g id="text961-0-6-2">
      <g class="st1">
        <text class="st0" transform="translate(302.37 174.63)"><tspan x="0" y="0">D</tspan></text>
      </g>
    </g>
    <g id="text1025-2">
      <g class="st1">
        <text class="st0" transform="translate(427.6 174.63)"><tspan x="0" y="0">F</tspan></text>
      </g>
    </g>
    <g id="text1041-5">
      <g class="st1">
        <text class="st0" transform="translate(554.3 174.63)"><tspan x="0" y="0">G</tspan></text>
      </g>
    </g>
    <g id="text1045-1">
      <g class="st1">
        <text class="st0" transform="translate(679.55 174.63)"><tspan x="0" y="0">H</tspan></text>
      </g>
    </g>
    <g id="text1049-8">
      <g class="st1">
        <text class="st0" transform="translate(801.43 174.63)"><tspan x="0" y="0">J</tspan></text>
      </g>
    </g>
    <g id="text1053-4">
      <g class="st1">
        <text class="st0" transform="translate(927.19 174.63)"><tspan x="0" y="0">K</tspan></text>
      </g>
    </g>
    <g id="text1057-8">
      <g class="st1">
        <text class="st0" transform="translate(1051.96 175.11)"><tspan x="0" y="0">L</tspan></text>
      </g>
    </g>
    <g id="text961-8-7">
      <g class="st1">
        <text class="st0" transform="translate(117.5 300.14)"><tspan x="0" y="0">Z</tspan></text>
      </g>
    </g>
    <g id="text961-0-3-6">
      <g class="st1">
        <text class="st0" transform="translate(243.47 299.66)"><tspan x="0" y="0">X</tspan></text>
      </g>
    </g>
    <g id="text961-0-6-2-7">
      <g class="st1">
        <text class="st0" transform="translate(365.71 299.66)"><tspan x="0" y="0">C</tspan></text>
      </g>
    </g>
    <g id="text1025-2-9">
      <g class="st1">
        <text class="st0" transform="translate(490.93 299.66)"><tspan x="0" y="0">V</tspan></text>
      </g>
    </g>
    <g id="text1041-5-0">
      <g class="st1">
        <text class="st0" transform="translate(617.64 299.66)"><tspan x="0" y="0">B</tspan></text>
      </g>
    </g>
    <g id="text1045-1-2">
      <g class="st1">
        <text class="st0" transform="translate(742.88 299.66)"><tspan x="0" y="0">N</tspan></text>
      </g>
    </g>
    <g id="text1049-8-8">
      <g class="st1">
        <text class="st0" transform="translate(864.77 299.66)"><tspan x="0" y="0">M</tspan></text>
      </g>
    </g>
  </g>
</svg>