<?xml version="1.0" encoding="UTF-8"?>
<svg id="svg-keyboard" xmlns="http://www.w3.org/2000/svg" version="1.1" viewBox="0 0 880 320">
  <!-- Generator: Adobe Illustrator 29.6.1, SVG Export Plug-In . SVG Version: 2.1.1 Build 9)  -->
  <defs>
    <style>
      .st0 {
        stroke-linecap: round;
      }

      .st0, .st1 {
        fill: none;
        stroke: #000;
        stroke-miterlimit: 10;
        stroke-width: 2px;
      }

      .st2, .st3 {
        isolation: isolate;
      }

      .st4 {
        fill: #f7f7f7;
        fill-opacity: .78;
      }

      .st3 {
        font-family: ArialMT, Arial;
        font-size: 23.19px;
      }
    </style>
  </defs>
  <g id="layer1">
    <g id="KeyQ">
      <path id="rect1181" class="st4" d="M3.23,2.9h72.47c.1,0,.18.08.18.18v71.84c0,.1-.08.18-.18.18H3.22c-.1,0-.18-.08-.18-.18V3.08c0-.1.08-.18.18-.18,0,0,0,0,0,0Z"/>
      <rect id="rect1183" class="st4" x=".5" y=".5" width="78" height="78.24" rx="6.31" ry="6.31"/>
    </g>
    <g id="KeyA">
      <path id="rect1187" class="st4" d="M23.53,83.24h72.48c.1,0,.18.08.18.18v71.84c0,.1-.08.18-.18.18H23.54c-.1,0-.18-.08-.18-.18v-71.84c0-.1.08-.18.18-.18h0Z"/>
      <rect id="rect1189" class="st4" x="20.8" y="80.85" width="78" height="78.24" rx="6.31" ry="6.31"/>
    </g>
    <g id="KeyZ">
      <path id="rect1193" class="st4" d="M63.4,163.59h72.47c.1,0,.18.08.18.18v71.84c0,.1-.08.18-.18.18H63.39c-.1,0-.18-.08-.18-.18v-71.84c0-.1.08-.18.18-.18h0,0Z"/>
      <rect id="rect1195" class="st4" x="60.67" y="161.19" width="78" height="78.24" rx="6.31" ry="6.31"/>
    </g>
    <g id="KeyW">
      <path id="rect1205" class="st4" d="M83.33,2.9h72.48c.1,0,.18.08.18.18v71.84c0,.1-.08.18-.18.18h-72.48c-.1,0-.18-.08-.18-.18V3.08c0-.1.08-.18.18-.18Z"/>
      <rect id="rect1207" class="st4" x="80.6" y=".5" width="78" height="78.24" rx="6.31" ry="6.31"/>
    </g>
    <g id="KeyS">
      <path id="rect1211" class="st4" d="M103.63,83.24h72.48c.1,0,.18.08.18.18v71.84c0,.1-.08.18-.18.18h-72.47c-.1,0-.18-.08-.18-.18v-71.84c0-.1.08-.18.18-.18h0Z"/>
      <rect id="rect1213" class="st4" x="100.9" y="80.85" width="78" height="78.24" rx="6.31" ry="6.31"/>
    </g>
    <g id="KeyX">
      <path id="rect1217" class="st4" d="M143.5,163.59h72.47c.1,0,.18.08.18.18v71.84c0,.1-.08.18-.18.18h-72.48c-.1,0-.18-.08-.18-.18v-71.84c0-.1.08-.18.18-.18h0Z"/>
      <rect id="rect1219" class="st4" x="140.77" y="161.19" width="78" height="78.24" rx="6.31" ry="6.31"/>
    </g>
    <g id="KeyE">
      <path id="rect1229" class="st4" d="M163.43,2.9h72.47c.1,0,.18.08.18.18v71.84c0,.1-.08.18-.18.18h-72.48c-.1,0-.18-.08-.18-.18V3.08c0-.1.08-.18.18-.18h0Z"/>
      <rect id="rect1231" class="st4" x="160.7" y=".5" width="78" height="78.24" rx="6.31" ry="6.31"/>
    </g>
    <g id="KeyD">
      <path id="rect1235" class="st4" d="M183.73,83.24h72.48c.1,0,.18.08.18.18v71.84c0,.1-.08.18-.18.18h-72.48c-.1,0-.18-.08-.18-.18v-71.84c0-.1.08-.18.18-.18h0Z"/>
      <rect id="rect1237" class="st4" x="181" y="80.85" width="78" height="78.24" rx="6.31" ry="6.31"/>
    </g>
    <g id="KeyC">
      <path id="rect1241" class="st4" d="M223.6,163.59h72.47c.1,0,.18.08.18.18v71.84c0,.1-.08.18-.18.18h-72.48c-.1,0-.18-.08-.18-.18v-71.84c0-.1.08-.18.18-.18h0,0Z"/>
      <rect id="rect1243" class="st4" x="220.87" y="161.19" width="78" height="78.24" rx="6.31" ry="6.31"/>
    </g>
    <g id="KeyR">
      <path id="rect1253" class="st4" d="M243.54,2.9h72.47c.1,0,.18.08.18.18v71.84c0,.1-.08.18-.18.18h-72.48c-.1,0-.18-.08-.18-.18V3.08c0-.1.08-.18.18-.18h0,0Z"/>
      <rect id="rect1255" class="st4" x="240.8" y=".5" width="78" height="78.24" rx="6.31" ry="6.31"/>
    </g>
    <g id="KeyF">
      <path id="rect1259" class="st4" d="M263.83,83.24h72.48c.1,0,.18.08.18.18v71.84c0,.1-.08.18-.18.18h-72.48c-.1,0-.18-.08-.18-.18v-71.84c0-.1.08-.18.18-.18Z"/>
      <rect id="rect1261" class="st4" x="261.1" y="80.85" width="78" height="78.24" rx="6.31" ry="6.31"/>
    </g>
    <g id="KeyV">
      <path id="rect1265" class="st4" d="M303.7,163.59h72.47c.1,0,.18.08.18.18v71.84c0,.1-.08.18-.18.18h-72.48c-.1,0-.18-.08-.18-.18v-71.84c0-.1.08-.18.18-.18h0Z"/>
      <rect id="rect1267" class="st4" x="300.97" y="161.19" width="78" height="78.24" rx="6.31" ry="6.31"/>
    </g>
    <g id="KeyT">
      <path id="rect1277" class="st4" d="M323.63,2.9h72.48c.1,0,.18.08.18.18v71.84c0,.1-.08.18-.18.18h-72.48c-.1,0-.18-.08-.18-.18V3.08c0-.1.08-.18.18-.18Z"/>
      <rect id="rect1279" class="st4" x="320.9" y=".5" width="78" height="78.24" rx="6.31" ry="6.31"/>
    </g>
    <g id="KeyG">
      <path id="rect1283" class="st4" d="M343.93,83.24h72.48c.1,0,.18.08.18.18v71.84c0,.1-.08.18-.18.18h-72.48c-.1,0-.18-.08-.18-.18v-71.84c0-.1.08-.18.18-.18Z"/>
      <rect id="rect1285" class="st4" x="341.2" y="80.85" width="78" height="78.24" rx="6.31" ry="6.31"/>
    </g>
    <g id="KeyB">
      <path id="rect1289" class="st4" d="M383.8,163.59h72.47c.1,0,.18.08.18.18v71.84c0,.1-.08.18-.18.18h-72.48c-.1,0-.18-.08-.18-.18v-71.84c0-.1.08-.18.18-.18h0Z"/>
      <rect id="rect1291" class="st4" x="381.07" y="161.19" width="78" height="78.24" rx="6.31" ry="6.31"/>
    </g>
    <g id="KeyY">
      <path id="rect1301" class="st4" d="M403.73,2.9h72.47c.1,0,.18.08.18.18v71.84c0,.1-.08.18-.18.18h-72.48c-.1,0-.18-.08-.18-.18V3.08c0-.1.08-.18.18-.18,0,0,0,0,0,0Z"/>
      <rect id="rect1303" class="st4" x="401" y=".5" width="78" height="78.24" rx="6.31" ry="6.31"/>
    </g>
    <g id="KeyH">
      <path id="rect1307" class="st4" d="M424.03,83.24h72.47c.1,0,.18.08.18.18v71.84c0,.1-.08.18-.18.18h-72.48c-.1,0-.18-.08-.18-.18v-71.84c0-.1.08-.18.18-.18h0Z"/>
      <rect id="rect1309" class="st4" x="421.3" y="80.85" width="78" height="78.24" rx="6.31" ry="6.31"/>
    </g>
    <g id="KeyN">
      <path id="rect1313" class="st4" d="M463.9,163.59h72.47c.1,0,.18.08.18.18v71.84c0,.1-.08.18-.18.18h-72.48c-.1,0-.18-.08-.18-.18v-71.84c0-.1.08-.18.18-.18h0Z"/>
      <rect id="rect1315" class="st4" x="461.17" y="161.19" width="78" height="78.24" rx="6.31" ry="6.31"/>
    </g>
    <g id="KeyU">
      <path id="rect1325" class="st4" d="M483.83,2.9h72.48c.1,0,.18.08.18.18v71.84c0,.1-.08.18-.18.18h-72.48c-.1,0-.18-.08-.18-.18V3.08c0-.1.08-.18.18-.18Z"/>
      <rect id="rect1327" class="st4" x="481.11" y=".5" width="78" height="78.24" rx="6.31" ry="6.31"/>
    </g>
    <g id="KeyJ">
      <path id="rect1331" class="st4" d="M504.14,83.24h72.48c.1,0,.18.08.18.18v71.84c0,.1-.08.18-.18.18h-72.48c-.1,0-.18-.08-.18-.18v-71.84c0-.1.08-.18.18-.18Z"/>
      <rect id="rect1333" class="st4" x="501.4" y="80.85" width="78" height="78.24" rx="6.31" ry="6.31"/>
    </g>
    <g id="KeyM">
      <path id="rect1337" class="st4" d="M544,163.59h72.48c.1,0,.18.08.18.18v71.84c0,.1-.08.18-.18.18h-72.48c-.1,0-.18-.08-.18-.18v-71.84c0-.1.08-.18.18-.18h0Z"/>
      <rect id="rect1339" class="st4" x="541.27" y="161.19" width="78" height="78.24" rx="6.31" ry="6.31"/>
    </g>
    <g id="KeyI">
      <path id="rect1349" class="st4" d="M563.93,2.9h72.47c.1,0,.18.08.18.18v71.84c0,.1-.08.18-.18.18h-72.48c-.1,0-.18-.08-.18-.18V3.08c0-.1.08-.18.18-.18,0,0,0,0,0,0Z"/>
      <rect id="rect1351" class="st4" x="561.2" y=".5" width="78" height="78.24" rx="6.31" ry="6.31"/>
    </g>
    <g id="KeyK">
      <path id="rect1355" class="st4" d="M584.23,83.24h72.48c.1,0,.18.08.18.18v71.84c0,.1-.08.18-.18.18h-72.48c-.1,0-.18-.08-.18-.18v-71.84c0-.1.08-.18.18-.18h0Z"/>
      <rect id="rect1357" class="st4" x="581.5" y="80.85" width="78" height="78.24" rx="6.31" ry="6.31"/>
    </g>
    <g id="KeyO">
      <path id="rect1373" class="st4" d="M644.04,2.9h72.47c.1,0,.18.08.18.18v71.84c0,.1-.08.18-.18.18h-72.48c-.1,0-.18-.08-.18-.18V3.08c0-.1.08-.18.18-.18h0,0Z"/>
      <rect id="rect1375" class="st4" x="641.31" y=".5" width="78" height="78.24" rx="6.31" ry="6.31"/>
    </g>
    <g id="KeyL">
      <path id="rect1379" class="st4" d="M664.33,83.24h72.48c.1,0,.18.08.18.18v71.84c0,.1-.08.18-.18.18h-72.48c-.1,0-.18-.08-.18-.18v-71.84c0-.1.08-.18.18-.18Z"/>
      <rect id="rect1381" class="st4" x="661.6" y="80.85" width="78" height="78.24" rx="6.31" ry="6.31"/>
    </g>
    <g id="KeyP">
      <path id="rect1397" class="st4" d="M724.13,2.9h72.47c.1,0,.18.08.18.18v71.84c0,.1-.08.18-.18.18h-72.48c-.1,0-.18-.08-.18-.18V3.08c0-.1.08-.18.18-.18,0,0,0,0,0,0Z"/>
      <rect id="rect1399" class="st4" x="721.4" y=".5" width="78" height="78.24" rx="6.31" ry="6.31"/>
    </g>
    <g id="Space">
      <path id="rect833-1-5" class="st4" d="M185.92,243.99h508.3c.69,0,1.25.61,1.25,1.35v69.03c0,.75-.56,1.35-1.25,1.35H185.92c-.69,0-1.25-.61-1.25-1.35v-69.03c0-.75.56-1.35,1.25-1.35h0Z"/>
      <path id="rect833-5" class="st4" d="M187.22,241.74h505.77c2.82,0,5.11,2.47,5.11,5.53v66.71c0,3.05-2.29,5.53-5.11,5.53H187.22c-2.82,0-5.11-2.47-5.11-5.53v-66.71c0-3.05,2.29-5.53,5.11-5.53h0Z"/>
    </g>
    <g class="st2">
      <text class="st3" transform="translate(13.64 31.34)"><tspan x="0" y="0">Q</tspan></text>
    </g>
    <g class="st2">
      <text class="st3" transform="translate(94.53 31.03)"><tspan x="0" y="0">W</tspan></text>
    </g>
    <g class="st2">
      <text class="st3" transform="translate(173.04 31.03)"><tspan x="0" y="0">E</tspan></text>
    </g>
    <g class="st2">
      <text class="st3" transform="translate(253.46 31.03)"><tspan x="0" y="0">R</tspan></text>
    </g>
    <g class="st2">
      <text class="st3" transform="translate(334.83 31.03)"><tspan x="0" y="0">T</tspan></text>
    </g>
    <g class="st2">
      <text class="st3" transform="translate(415.27 31.03)"><tspan x="0" y="0">Y</tspan></text>
    </g>
    <g class="st2">
      <text class="st3" transform="translate(493.55 31.03)"><tspan x="0" y="0">U</tspan></text>
    </g>
    <g class="st2">
      <text class="st3" transform="translate(574.32 31.03)"><tspan x="0" y="0">I</tspan></text>
    </g>
    <g class="st2">
      <text class="st3" transform="translate(654.44 31.34)"><tspan x="0" y="0">O</tspan></text>
    </g>
    <g class="st2">
      <text class="st3" transform="translate(733.75 31.03)"><tspan x="0" y="0">P</tspan></text>
    </g>
    <g class="st2">
      <text class="st3" transform="translate(33.9 111.88)"><tspan x="0" y="0">A</tspan></text>
    </g>
    <g class="st2">
      <text class="st3" transform="translate(114.8 111.57)"><tspan x="0" y="0">S</tspan></text>
    </g>
    <g class="st2">
      <text class="st3" transform="translate(193.31 111.57)"><tspan x="0" y="0">D</tspan></text>
    </g>
    <g class="st2">
      <text class="st3" transform="translate(273.73 111.57)"><tspan x="0" y="0">F</tspan></text>
    </g>
    <g class="st2">
      <text class="st3" transform="translate(355.1 111.57)"><tspan x="0" y="0">G</tspan></text>
    </g>
    <g class="st2">
      <text class="st3" transform="translate(435.54 111.57)"><tspan x="0" y="0">H</tspan></text>
    </g>
    <g class="st2">
      <text class="st3" transform="translate(513.81 111.57)"><tspan x="0" y="0">J</tspan></text>
    </g>
    <g class="st2">
      <text class="st3" transform="translate(594.58 111.57)"><tspan x="0" y="0">K</tspan></text>
    </g>
    <g class="st2">
      <text class="st3" transform="translate(674.71 111.88)"><tspan x="0" y="0">L</tspan></text>
    </g>
    <g class="st2">
      <text class="st3" transform="translate(74.58 192.42)"><tspan x="0" y="0">Z</tspan></text>
    </g>
    <g class="st2">
      <text class="st3" transform="translate(155.48 192.11)"><tspan x="0" y="0">X</tspan></text>
    </g>
    <g class="st2">
      <text class="st3" transform="translate(233.98 192.11)"><tspan x="0" y="0">C</tspan></text>
    </g>
    <g class="st2">
      <text class="st3" transform="translate(314.4 192.11)"><tspan x="0" y="0">V</tspan></text>
    </g>
    <g class="st2">
      <text class="st3" transform="translate(395.78 192.11)"><tspan x="0" y="0">B</tspan></text>
    </g>
    <g class="st2">
      <text class="st3" transform="translate(476.21 192.11)"><tspan x="0" y="0">N</tspan></text>
    </g>
    <g class="st2">
      <text class="st3" transform="translate(554.49 192.11)"><tspan x="0" y="0">M</tspan></text>
    </g>
    <g id="KeyM1">
      <path id="rect13371" class="st4" d="M624.1,163.59h72.48c.1,0,.18.08.18.18v71.84c0,.1-.08.18-.18.18h-72.48c-.1,0-.18-.08-.18-.18v-71.84c0-.1.08-.18.18-.18h0Z"/>
      <rect id="rect13391" class="st4" x="621.37" y="161.19" width="78" height="78.24" rx="6.31" ry="6.31"/>
    </g>
    <g id="KeyM2">
      <path id="rect13372" class="st4" d="M704.19,163.59h72.48c.1,0,.18.08.18.18v71.84c0,.1-.08.18-.18.18h-72.48c-.1,0-.18-.08-.18-.18v-71.84c0-.1.08-.18.18-.18h0Z"/>
      <rect id="rect13392" class="st4" x="701.46" y="161.19" width="78" height="78.24" rx="6.31" ry="6.31"/>
    </g>
    <g class="st2">
      <text class="st3" transform="translate(636.66 192.11)"><tspan x="0" y="0">,</tspan></text>
    </g>
    <g class="st2">
      <text class="st3" transform="translate(714.94 192.11)"><tspan x="0" y="0">.</tspan></text>
    </g>
    <g id="KeyP1">
      <path id="rect13971" class="st4" d="M804.23,2.9h72.47c.1,0,.18.08.18.18v71.84c0,.1-.08.18-.18.18h-72.48c-.1,0-.18-.08-.18-.18V3.08c0-.1.08-.18.18-.18,0,0,0,0,0,0Z"/>
      <rect id="rect13991" class="st4" x="801.5" y=".5" width="78" height="78.24" rx="6.31" ry="6.31"/>
    </g>
    <g>
      <polygon class="st1" points="833.96 14.46 819.65 14.46 814.88 22.75 819.65 31.03 833.96 31.03 833.96 22.75 833.96 14.46"/>
      <g>
        <line class="st1" x1="822.15" y1="18.28" x2="829.87" y2="27.22"/>
        <line class="st1" x1="822.15" y1="27.22" x2="829.87" y2="18.28"/>
      </g>
    </g>
    <g id="KeyL1">
      <path id="rect13791" class="st4" d="M746.34,83.24h128.23c.17,0,.32.08.32.18v71.84c0,.1-.13.18-.32.18h-128.23c-.17,0-.32-.08-.32-.18v-71.84c0-.1.15-.18.32-.18Z"/>
      <rect id="rect13811" class="st4" x="741.51" y="80.85" width="137.99" height="78.24" rx="6.31" ry="6.31"/>
    </g>
    <g>
      <g>
        <line class="st1" x1="758.09" y1="103.37" x2="785.09" y2="103.37"/>
        <path d="M766.87,109.56c.19-.3.1-.7-.2-.89l-8.29-5.3,8.29-5.3c.3-.19.39-.59.2-.89-.19-.3-.59-.39-.89-.2l-9.14,5.84c-.19.12-.3.32-.3.54s.11.43.3.54l9.14,5.84c.11.07.22.1.35.1.21,0,.42-.1.54-.3h0Z"/>
      </g>
      <line class="st0" x1="785.09" y1="103.37" x2="785.09" y2="96.99"/>
    </g>
  </g>
</svg>